PathFileType	4	(X/Y/Z)	C:\Users\Basilio\Documents\Thesis Gigler\squatting_fais\c3dfiles\058\SLS_back_pre4\markers_experimental.trc
DataRate	CameraRate	NumFrames	NumMarkers	Units	OrigDataRate	OrigDataStartFrame	OrigNumFrames
200.000000	200.000000	4	61	mm	200.000000	0	1279
Frame#	Time	FHD			LBHD			RBHD			C7			T10			CLAV			LSHO			LUUPA			LMUPA			LDUPA			LLEP			LMEP			LRAD			LUL			LRFIN			RSHO			RUPA1			RMUPA			RDUPA			RLEP			RMEP			RRAD			RUL			RUFIN			LASI			RASI			USACR			LSACR			RSACR			LTHI1			LTHI2			LTHI3			LTHI4			LLFC			LMFC			LTIB1			LTIB2			LTIB3			LTIB4			LLMAL			LMMAL			LHEE			LMT1			LMT2			LMT5			RTHI			RTHI2			RTHI3			RTHI4			RLFC			RMFC			RTIB1			RTIB2			RTIB3			RTIB4			RLMAL			RMMAL			RHEE			RMT1			RMT2			RMT5			
		X1	Y1	Z1	X2	Y2	Z2	X3	Y3	Z3	X4	Y4	Z4	X5	Y5	Z5	X6	Y6	Z6	X7	Y7	Z7	X8	Y8	Z8	X9	Y9	Z9	X10	Y10	Z10	X11	Y11	Z11	X12	Y12	Z12	X13	Y13	Z13	X14	Y14	Z14	X15	Y15	Z15	X16	Y16	Z16	X17	Y17	Z17	X18	Y18	Z18	X19	Y19	Z19	X20	Y20	Z20	X21	Y21	Z21	X22	Y22	Z22	X23	Y23	Z23	X24	Y24	Z24	X25	Y25	Z25	X26	Y26	Z26	X27	Y27	Z27	X28	Y28	Z28	X29	Y29	Z29	X30	Y30	Z30	X31	Y31	Z31	X32	Y32	Z32	X33	Y33	Z33	X34	Y34	Z34	X35	Y35	Z35	X36	Y36	Z36	X37	Y37	Z37	X38	Y38	Z38	X39	Y39	Z39	X40	Y40	Z40	X41	Y41	Z41	X42	Y42	Z42	X43	Y43	Z43	X44	Y44	Z44	X45	Y45	Z45	X46	Y46	Z46	X47	Y47	Z47	X48	Y48	Z48	X49	Y49	Z49	X50	Y50	Z50	X51	Y51	Z51	X52	Y52	Z52	X53	Y53	Z53	X54	Y54	Z54	X55	Y55	Z55	X56	Y56	Z56	X57	Y57	Z57	X58	Y58	Z58	X59	Y59	Z59	X60	Y60	Z60	X61	Y61	Z61	

1	0	-245.7472229003907	1793.869750976563	-648.3317871093751	-401.2286376953126	1756.64111328125	-731.9926147460939	-224.5319824218751	1800.297485351563	-790.3525390625002	-420.5994873046876	1586.624267578125	-749.6077270507814	-414.9642639160157	1276.579345703125	-743.9932250976564	-262.9171447753907	1541.2890625	-725.4351196289064	-268.4703674316407	1585.531494140625	-905.101989746094	-349.2384338378907	1371.230834960938	-1012.152648925781	-304.6324462890626	1352.662841796875	-1015.987548828125	-337.9966125488282	1302.193725585938	-1016.534729003906	-333.0240173339844	1232.280639648438	-1016.754638671875	-347.9048461914063	1212.76708984375	-949.4016113281252	-209.0078125000001	982.8967895507815	-996.312683105469	-258.4529724121094	977.9630126953127	-1060.904541015625	-171.7842102050782	895.9923095703127	-1032.0009765625	-314.5256652832032	1577.038940429688	-544.2362670898439	-395.0323181152345	1347.784912109375	-464.7713317871095	-347.7058105468751	1332.311645507813	-461.6140747070314	-376.9284973144532	1280.587646484375	-459.9960021972657	-379.8099365234376	1214.422241210938	-465.8421325683595	-384.943328857422	1193.448120117188	-547.6265258789064	-245.6907196044922	968.2893066406252	-476.2586975097657	-303.3133850097657	961.7230224609377	-420.0655517578126	-218.3563842773438	887.816345214844	-439.9459838867189	-224.4078521728516	1083.739624023438	-872.514343261719	-225.4023437500001	1083.507568359375	-630.2529296875001	-420.6156005859376	1153.606567382813	-742.2072753906251	-425.557586669922	1121.338745117188	-770.019714355469	-423.4689331054689	1121.077270507813	-712.3643798828126	-254.9918518066407	803.642272949219	-977.1633300781252	-220.7552337646485	727.1981811523439	-980.6257934570315	-176.2630920410157	730.5128784179689	-957.5569458007815	-245.4951629638672	672.3035888671876	-981.333679199219	-250.4339294433594	577.1502075195314	-984.7493896484377	-217.4074707031251	548.5409545898439	-863.6533813476565	-234.9754333496094	430.7017517089845	-978.7273559570315	-303.9142150878907	421.9564819335939	-1027.633178710938	-266.4144897460938	400.7110290527345	-1013.822021484375	-289.4667358398438	318.3534240722657	-1001.080139160156	-409.5195922851564	147.90869140625	-1027.576293945313	-372.5683288574219	149.7685852050782	-943.7064208984377	-472.2089233398439	122.9003982543946	-972.5393066406252	-254.612289428711	68.9937210083008	-975.635925292969	-255.7010498046876	68.56936645507814	-1022.109130859375	-312.1045532226563	57.06410980224611	-1071.281372070313	-327.7770080566407	871.7593383789065	-569.9172973632814	-292.8742370605469	815.3780517578127	-577.8767089843751	-263.4742736816407	816.2607421875002	-582.1033935546876	-327.1916503906251	738.9961547851564	-593.3032836914064	-333.6005554199219	556.4961547851564	-624.6075439453126	-299.0597229003907	552.5036010742189	-757.8890380859376	-293.3815917968751	354.0582580566407	-723.1478271484376	-336.2380981445313	272.9178466796876	-662.6588745117189	-301.0057067871094	267.9270324707032	-694.7439575195314	-311.5387878417969	226.1497650146485	-732.4260864257814	-374.5274963378907	117.6549758911133	-701.2673950195314	-343.4284057617188	143.13427734375	-787.2957153320315	-439.1499023437501	101.7295608520508	-764.7398681640626	-228.296615600586	60.62183380126955	-776.755798339844	-224.7832031250001	57.93296051025392	-724.3104248046876	-273.3655090332032	27.73511505126954	-672.9069213867189	
2	0.005	-245.6599731445313	1794.008544921875	-648.2888793945314	-401.2390747070314	1756.634155273438	-731.8940429687501	-224.5385742187501	1800.312866210938	-790.3310546875002	-420.571502685547	1586.6220703125	-749.5017700195314	-415.0259704589845	1276.617065429688	-743.8660888671876	-262.9157714843751	1541.289794921875	-725.4077758789064	-268.5552062988282	1585.519897460938	-905.0382080078127	-349.2237548828126	1371.1484375	-1012.019287109375	-304.5883178710938	1352.625854492188	-1015.873901367188	-337.9777526855469	1302.136352539063	-1016.435668945313	-332.9837646484376	1232.160522460938	-1016.617492675781	-347.8693847656251	1212.662231445313	-949.2485351562502	-208.3538513183594	983.1953125000002	-995.9375610351565	-257.6881103515626	978.0148925781252	-1060.595092773438	-170.8877258300782	896.2559814453127	-1031.595703125	-314.4889831542969	1577.022216796875	-544.1652221679689	-394.755584716797	1347.695068359375	-464.6072692871095	-347.1648559570313	1332.297607421875	-461.6277770996095	-376.5375976562501	1280.463256835938	-459.8982238769532	-379.6231384277344	1214.4306640625	-465.6127929687501	-384.5542297363282	1193.404663085938	-547.4897460937501	-244.7356414794922	968.4525146484377	-476.1764221191407	-302.4345092773438	961.7854614257815	-420.0117187500001	-217.0964965820313	888.2783203125002	-439.9243774414064	-224.4721832275391	1083.748168945313	-872.532165527344	-225.4009094238282	1083.529541015625	-630.2247314453126	-420.6265258789064	1153.61181640625	-742.1002197265626	-425.5403137207032	1121.353759765625	-769.955749511719	-423.5239868164064	1121.07177734375	-712.2747192382814	-254.9978027343751	803.6130371093752	-977.0838623046877	-220.8533935546876	727.1928100585939	-980.5532836914065	-176.4324340820313	730.5062255859376	-957.4365234375002	-245.5397338867188	672.3175048828126	-981.2576904296877	-250.4319763183594	577.1528320312501	-984.675476074219	-217.5102539062501	548.5708618164064	-863.5496826171877	-234.9479370117188	430.7360229492189	-978.6342773437502	-303.9159240722657	421.9544677734376	-1027.607299804688	-266.4559020996094	400.6764221191407	-1013.722290039063	-289.5794982910157	318.3046264648438	-1000.997985839844	-409.5659790039064	147.91064453125	-1027.535522460938	-372.6167907714844	149.7629699707032	-943.6907958984377	-472.212371826172	122.8624572753907	-972.482360839844	-254.6289520263672	68.9632034301758	-975.6239013671877	-255.7028350830079	68.58266448974611	-1022.075561523438	-312.1628112792969	57.06619262695314	-1071.235229492188	-327.7550354003907	871.778747558594	-569.9286499023439	-292.9620971679688	816.1914672851565	-577.6755371093751	-263.0205078125001	816.1257324218752	-582.3876342773439	-327.3377685546876	738.9872436523439	-593.2570190429689	-333.8013610839844	556.5489501953126	-624.5614013671876	-299.0540466308594	552.5516357421876	-757.7932739257814	-293.3514709472657	354.0717773437501	-723.0975952148439	-336.2622070312501	272.9385986328126	-662.5911865234376	-301.0540161132813	267.9595947265626	-694.7288208007814	-311.6088256835938	226.1666870117188	-732.3864746093751	-374.5332641601563	117.6547546386719	-701.2654418945314	-343.4244995117188	143.1164855957032	-787.259948730469	-439.0996093750001	101.7155227661133	-764.7493896484376	-228.3474273681641	60.60301208496095	-776.7471923828127	-224.8267059326172	57.90514755249025	-724.3204956054689	-273.3652343750001	27.72472000122071	-672.9147338867189	
3	0.01	-245.6617431640626	1794.026245117188	-648.2393188476564	-401.2371520996095	1756.630737304688	-731.7933959960939	-224.5960693359376	1800.266479492188	-790.2830200195315	-420.5849609375001	1586.644165039063	-749.4291381835939	-415.0530395507814	1276.595703125	-743.8034667968751	-262.8671569824219	1541.265747070313	-725.3586425781251	-268.5982055664063	1585.50439453125	-905.010681152344	-349.1854858398438	1371.092041015625	-1011.937744140625	-304.6037902832032	1352.59619140625	-1015.768432617188	-337.9450378417969	1302.0947265625	-1016.280456542969	-332.9223937988282	1232.044067382813	-1016.47607421875	-347.7028808593751	1212.578125	-949.1007080078127	-207.2841491699219	983.4107055664065	-995.6553344726565	-257.0278625488282	978.0670166015627	-1060.213745117188	-169.9951782226563	896.6907348632815	-1031.141357421875	-314.4590759277344	1577.034912109375	-544.0807495117189	-394.3749389648439	1347.613891601563	-464.480682373047	-346.9185791015626	1332.260375976563	-461.5606079101564	-376.0740661621094	1280.451782226563	-459.8047180175782	-379.2650756835938	1214.339233398438	-465.4504699707032	-384.1947631835939	1193.311279296875	-547.3442382812501	-243.4452362060547	968.8496093750002	-476.1976928710939	-301.0298461914063	961.8641357421877	-420.0259399414064	-215.9934997558594	888.6965942382815	-439.8693847656251	-224.5525665283204	1083.76611328125	-872.4666748046877	-225.3912811279297	1083.4970703125	-630.2197875976564	-420.6529541015626	1153.589233398438	-742.0360107421876	-425.6383056640626	1121.3369140625	-769.8333129882815	-423.5134887695314	1121.073364257813	-712.1981811523439	-255.0907287597657	803.647399902344	-977.0644531250002	-220.8922729492188	727.2279052734376	-980.4808349609377	-176.5609741210938	730.4830932617189	-957.2962646484377	-245.5721435546876	672.3010864257814	-981.2143554687502	-250.4648590087891	577.1262207031251	-984.617614746094	-217.529769897461	548.5973510742189	-863.4812011718752	-234.9712677001954	430.727264404297	-978.5903930664065	-304.0107727050782	421.9426269531251	-1027.526245117188	-266.5115356445313	400.6124267578126	-1013.647155761719	-289.7094726562501	318.2744750976563	-1000.884948730469	-409.5179443359376	147.9297485351563	-1027.510864257813	-372.6322937011719	149.7746276855469	-943.6331176757815	-472.2124938964845	122.8624572753907	-972.4824829101565	-254.6289520263672	68.9632034301758	-975.6239013671877	-255.7038879394532	68.59023284912111	-1022.076293945313	-311.8664550781251	56.56803512573244	-1071.3583984375	-327.6459350585938	871.8079223632815	-569.9500732421876	-293.0090637207032	816.2017211914065	-577.6027832031251	-262.6217651367188	815.9356079101565	-582.4973144531251	-327.3901062011719	738.9962158203126	-593.1879882812501	-333.9012451171876	556.5636596679689	-624.5189819335939	-299.1627807617188	552.5146484375001	-757.7581787109376	-293.4266967773438	354.0473632812501	-723.0512084960939	-336.3028869628907	272.9453125000001	-662.5989379882814	-301.0469360351563	267.9437561035157	-694.7314453125001	-311.5592651367188	226.1492919921876	-732.3622436523439	-374.5400085449219	117.6572570800782	-701.2521972656251	-343.4521789550782	143.1346740722657	-787.2631835937502	-439.1030273437501	101.7376785278321	-764.7390136718751	-228.3398132324219	60.60496520996095	-776.739196777344	-224.7984161376954	57.88732147216798	-724.3338623046876	-273.3745727539063	27.72620201110841	-672.9022216796876	
4	0.015	-245.6626892089844	1794.0380859375	-648.1870727539064	-401.2176208496095	1756.631958007813	-731.7036743164064	-224.6005859375001	1800.265991210938	-790.2568359375002	-420.6170043945314	1586.663452148438	-749.3358764648439	-415.0979309082032	1276.624755859375	-743.7142944335939	-262.9151916503907	1541.26123046875	-725.3181762695314	-268.5926818847657	1585.5	-904.9273071289065	-349.1565246582032	1371.040283203125	-1011.886962890625	-304.6318359375001	1352.582153320313	-1015.629455566406	-337.8969421386719	1302.024169921875	-1016.172790527344	-332.8840332031251	1231.934814453125	-1016.309875488281	-347.5843200683594	1212.446655273438	-948.9389648437502	-206.766586303711	983.5254516601565	-995.274353027344	-256.4504699707032	978.0626220703127	-1059.852783203125	-168.7503814697266	896.8045654296877	-1030.82421875	-314.4098510742188	1576.977905273438	-544.0515136718751	-394.1173400878907	1347.59130859375	-464.2709960937501	-346.6575927734376	1332.193603515625	-461.5306701660157	-375.7403564453126	1280.382690429688	-459.6450500488282	-378.7201538085938	1214.27587890625	-465.2677001953126	-383.8368835449219	1193.212524414063	-547.1653442382814	-242.8124389648438	969.1228637695315	-476.2057189941407	-300.1894836425782	961.9532470703127	-419.918670654297	-214.4708404541016	889.0679321289065	-439.805877685547	-224.5755767822266	1083.7919921875	-872.4060058593752	-225.3672180175782	1083.502563476563	-630.1902465820314	-420.6836547851564	1153.561645507813	-741.8927612304689	-425.5665283203126	1121.360595703125	-769.7844238281252	-423.5658264160157	1121.048950195313	-712.0759887695314	-255.1147918701172	803.6510009765627	-976.9898071289065	-220.8583221435547	727.2405395507814	-980.452331542969	-176.6483612060547	730.4204101562501	-957.2124023437502	-245.6212005615235	672.2904663085939	-981.1334228515627	-250.5276489257813	577.1237182617189	-984.5144042968752	-217.5462188720704	548.5934448242189	-863.409606933594	-234.9481658935547	430.7505493164064	-978.5346679687502	-304.0084533691407	421.9443664550782	-1027.454223632813	-266.5590209960938	400.6136474609376	-1013.538146972656	-289.7205810546876	318.2756958007813	-1000.828918457031	-409.5989074707032	147.9138946533203	-1027.468627929688	-372.6560363769532	149.7223663330078	-943.5949707031252	-472.2167968750001	122.8512954711914	-972.3999633789065	-254.5925598144532	68.97478485107423	-975.5889282226565	-255.706039428711	68.58143615722658	-1022.074401855469	-311.8390808105469	56.57814407348634	-1071.320190429688	-327.5262451171876	871.8409423828127	-570.0603027343751	-292.9812622070313	816.186706542969	-577.5792846679689	-262.0523376464844	816.0059204101565	-582.7438964843751	-327.4179077148438	739.0000000000001	-593.1486816406251	-333.9659118652344	556.5703735351564	-624.5051879882814	-299.1579284667969	552.5441284179689	-757.7059326171876	-293.5072937011719	354.0620727539063	-722.9847412109376	-336.3028869628907	272.9453125000001	-662.5989379882814	-301.0920104980469	267.9356689453126	-694.6799926757814	-311.6125183105469	226.1841888427735	-732.3613281250001	-374.5274963378907	117.6549758911133	-701.2673950195314	-343.4244995117188	143.1164855957032	-787.259948730469	-439.139862060547	101.7614440917969	-764.7389526367189	-228.3848114013672	60.60872650146486	-776.7469482421877	-224.8190307617188	57.90034103393556	-724.3009033203126	-273.3682556152344	27.71220970153809	-672.9048461914064	
